data = '[{ "duration": 0.6319447604166667, "durationTicks": 91, "midi": 66, "name": "F#4", "ticks": 0, "time": 0, "velocity": 0.6299212598425197 }, { "duration": 0.6319447604166667, "durationTicks": 91, "midi": 66, "name": "F#4", "ticks": 96, "time": 0.666667, "velocity": 0.6299212598425197 }, { "duration": 0.6319447604166666, "durationTicks": 91, "midi": 66, "name": "F#4", "ticks": 192, "time": 1.333334, "velocity": 0.6299212598425197 }, { "duration": 0.6319447604166664, "durationTicks": 91, "midi": 70, "name": "A#4", "ticks": 288, "time": 2.000001, "velocity": 0.6299212598425197 }, { "duration": 0.6319447604166668, "durationTicks": 91, "midi": 75, "name": "D#5", "ticks": 384, "time": 2.666668, "velocity": 0.6299212598425197 }, { "duration": 0.6319447604166668, "durationTicks": 91, "midi": 75, "name": "D#5", "ticks": 480, "time": 3.333335, "velocity": 0.6299212598425197 }, { "duration": 0.6319447604166664, "durationTicks": 91, "midi": 75, "name": "D#5", "ticks": 576, "time": 4.000002, "velocity": 0.6299212598425197 }, { "duration": 0.6319447604166673, "durationTicks": 91, "midi": 73, "name": "C#5", "ticks": 672, "time": 4.666669, "velocity": 0.6299212598425197 }, { "duration": 0.6319447604166664, "durationTicks": 91, "midi": 70, "name": "A#4", "ticks": 768, "time": 5.333336, "velocity": 0.6299212598425197 }, { "duration": 0.6319447604166664, "durationTicks": 91, "midi": 70, "name": "A#4", "ticks": 864, "time": 6.000003, "velocity": 0.6299212598425197 }, { "duration": 0.6319447604166664, "durationTicks": 91, "midi": 70, "name": "A#4", "ticks": 960, "time": 6.66667, "velocity": 0.6299212598425197 }, { "duration": 0.6319447604166664, "durationTicks": 91, "midi": 70, "name": "A#4", "ticks": 1056, "time": 7.333337, "velocity": 0.6299212598425197 }, { "duration": 0.6319447604166655, "durationTicks": 91, "midi": 65, "name": "F4", "ticks": 1152, "time": 8.000004, "velocity": 0.6299212598425197 }, { "duration": 0.6319447604166655, "durationTicks": 91, "midi": 65, "name": "F4", "ticks": 1248, "time": 8.666671000000001, "velocity": 0.6299212598425197 }, { "duration": 0.6319447604166673, "durationTicks": 91, "midi": 65, "name": "F4", "ticks": 1344, "time": 9.333338, "velocity": 0.6299212598425197 }, { "duration": 0.6319447604166673, "durationTicks": 91, "midi": 63, "name": "D#4", "ticks": 1440, "time": 10.000005, "velocity": 0.6299212598425197 }, { "duration": 0.3125001562499996, "durationTicks": 45, "midi": 78, "name": "F#5", "ticks": 1584, "time": 11.0000055, "velocity": 0.6299212598425197 }, { "duration": 0.3125001562499996, "durationTicks": 45, "midi": 78, "name": "F#5", "ticks": 1632, "time": 11.333339, "velocity": 0.6299212598425197 }, { "duration": 0.3125001562499996, "durationTicks": 45, "midi": 75, "name": "D#5", "ticks": 1680, "time": 11.6666725, "velocity": 0.6299212598425197 }, { "duration": 0.3125001562499996, "durationTicks": 45, "midi": 78, "name": "F#5", "ticks": 1728, "time": 12.000006, "velocity": 0.6299212598425197 }, { "duration": 0.3125001562499996, "durationTicks": 45, "midi": 75, "name": "D#5", "ticks": 1776, "time": 12.333339500000001, "velocity": 0.6299212598425197 }, { "duration": 0.3125001562500014, "durationTicks": 45, "midi": 78, "name": "F#5", "ticks": 1824, "time": 12.666673, "velocity": 0.6299212598425197 }, { "duration": 0.3125001562500014, "durationTicks": 45, "midi": 80, "name": "G#5", "ticks": 1872, "time": 13.0000065, "velocity": 0.6299212598425197 }, { "duration": 0.06250003124999992, "durationTicks": 9, "midi": 80, "name": "G#5", "ticks": 1920, "time": 13.33334, "velocity": 0.6299212598425197 }, { "duration": 0.5694447291666673, "durationTicks": 82, "midi": 82, "name": "A#5", "ticks": 1929, "time": 13.39584003125, "velocity": 0.6299212598425197 }, { "duration": 0.3125001562499996, "durationTicks": 45, "midi": 78, "name": "F#5", "ticks": 2016, "time": 14.000007, "velocity": 0.6299212598425197 }, { "duration": 0.3125001562499996, "durationTicks": 45, "midi": 78, "name": "F#5", "ticks": 2064, "time": 14.3333405, "velocity": 0.6299212598425197 }, { "duration": 0.3125001562499996, "durationTicks": 45, "midi": 73, "name": "C#5", "ticks": 2112, "time": 14.666674, "velocity": 0.6299212598425197 }, { "duration": 0.6319447604166673, "durationTicks": 91, "midi": 82, "name": "A#5", "ticks": 2160, "time": 15.0000075, "velocity": 0.6299212598425197 }, { "duration": 0.3125001562499996, "durationTicks": 45, "midi": 80, "name": "G#5", "ticks": 2256, "time": 15.666674500000001, "velocity": 0.6299212598425197 }, { "duration": 0.3125001562499996, "durationTicks": 45, "midi": 78, "name": "F#5", "ticks": 2544, "time": 17.6666755, "velocity": 0.6299212598425197 }, { "duration": 0.31250015625000316, "durationTicks": 45, "midi": 78, "name": "F#5", "ticks": 2592, "time": 18.000009, "velocity": 0.6299212598425197 }, { "duration": 0.3125001562499996, "durationTicks": 45, "midi": 78, "name": "F#5", "ticks": 2640, "time": 18.3333425, "velocity": 0.6299212598425197 }, { "duration": 0.9444449166666686, "durationTicks": 136, "midi": 77, "name": "F5", "ticks": 2688, "time": 18.666676, "velocity": 0.6299212598425197 }, { "duration": 0.3125001562499996, "durationTicks": 45, "midi": 77, "name": "F5", "ticks": 2832, "time": 19.6666765, "velocity": 0.6299212598425197 }, { "duration": 0.3125001562499996, "durationTicks": 45, "midi": 77, "name": "F5", "ticks": 2880, "time": 20.00001, "velocity": 0.6299212598425197 }, { "duration": 0.3125001562499996, "durationTicks": 45, "midi": 75, "name": "D#5", "ticks": 2928, "time": 20.3333435, "velocity": 0.6299212598425197 }, { "duration": 0.631944760416669, "durationTicks": 91, "midi": 78, "name": "F#5", "ticks": 2976, "time": 20.666677, "velocity": 0.6299212598425197 }, { "duration": 0.31250015625000316, "durationTicks": 45, "midi": 78, "name": "F#5", "ticks": 3120, "time": 21.6666775, "velocity": 0.6299212598425197 }, { "duration": 0.3125001562499996, "durationTicks": 45, "midi": 78, "name": "F#5", "ticks": 3168, "time": 22.000011, "velocity": 0.6299212598425197 }, { "duration": 0.3125001562499996, "durationTicks": 45, "midi": 75, "name": "D#5", "ticks": 3216, "time": 22.3333445, "velocity": 0.6299212598425197 }, { "duration": 0.3125001562499996, "durationTicks": 45, "midi": 78, "name": "F#5", "ticks": 3264, "time": 22.666678, "velocity": 0.6299212598425197 }, { "duration": 0.3125001562499996, "durationTicks": 45, "midi": 75, "name": "D#5", "ticks": 3312, "time": 23.0000115, "velocity": 0.6299212598425197 }, { "duration": 0.3125001562499996, "durationTicks": 45, "midi": 78, "name": "F#5", "ticks": 3360, "time": 23.333345, "velocity": 0.6299212598425197 }, { "duration": 0.3125001562499996, "durationTicks": 45, "midi": 80, "name": "G#5", "ticks": 3408, "time": 23.6666785, "velocity": 0.6299212598425197 }, { "duration": 0.6319447604166655, "durationTicks": 91, "midi": 82, "name": "A#5", "ticks": 3456, "time": 24.000012, "velocity": 0.6299212598425197 }, { "duration": 0.3125001562499996, "durationTicks": 45, "midi": 78, "name": "F#5", "ticks": 3552, "time": 24.666679000000002, "velocity": 0.6299212598425197 }, { "duration": 0.3125001562499996, "durationTicks": 45, "midi": 78, "name": "F#5", "ticks": 3600, "time": 25.0000125, "velocity": 0.6299212598425197 }, { "duration": 0.31250015625000316, "durationTicks": 45, "midi": 85, "name": "C#6", "ticks": 3648, "time": 25.333346, "velocity": 0.6299212598425197 }, { "duration": 0.9444449166666651, "durationTicks": 136, "midi": 82, "name": "A#5", "ticks": 3696, "time": 25.6666795, "velocity": 0.6299212598425197 }, { "duration": 0.3125001562499996, "durationTicks": 45, "midi": 78, "name": "F#5", "ticks": 4080, "time": 28.333347500000002, "velocity": 0.6299212598425197 }, { "duration": 0.3125001562499996, "durationTicks": 45, "midi": 78, "name": "F#5", "ticks": 4128, "time": 28.666681, "velocity": 0.6299212598425197 }, { "duration": 1.5763896770833377, "durationTicks": 227, "midi": 80, "name": "G#5", "ticks": 4176, "time": 29.0000145, "velocity": 0.6299212598425197 }, { "duration": 0.3125001562499996, "durationTicks": 45, "midi": 70, "name": "A#4", "ticks": 4464, "time": 31.0000155, "velocity": 0.6299212598425197 }, { "duration": 0.3125001562499996, "durationTicks": 45, "midi": 82, "name": "A#5", "ticks": 4464, "time": 31.0000155, "velocity": 0.6299212598425197 }, { "duration": 0.3125001562499996, "durationTicks": 45, "midi": 70, "name": "A#4", "ticks": 4512, "time": 31.333349000000002, "velocity": 0.6299212598425197 }, { "duration": 0.3125001562499996, "durationTicks": 45, "midi": 82, "name": "A#5", "ticks": 4512, "time": 31.333349000000002, "velocity": 0.6299212598425197 }, { "duration": 0.3125001562499996, "durationTicks": 45, "midi": 70, "name": "A#4", "ticks": 4560, "time": 31.6666825, "velocity": 0.6299212598425197 }, { "duration": 0.3125001562499996, "durationTicks": 45, "midi": 82, "name": "A#5", "ticks": 4560, "time": 31.6666825, "velocity": 0.6299212598425197 }, { "duration": 0.6319447604166655, "durationTicks": 91, "midi": 70, "name": "A#4", "ticks": 4608, "time": 32.000016, "velocity": 0.6299212598425197 }, { "duration": 0.6319447604166655, "durationTicks": 91, "midi": 78, "name": "F#5", "ticks": 4608, "time": 32.000016, "velocity": 0.6299212598425197 }, { "duration": 0.6319447604166655, "durationTicks": 91, "midi": 82, "name": "A#5", "ticks": 4608, "time": 32.000016, "velocity": 0.6299212598425197 }, { "duration": 0.31250015625000316, "durationTicks": 45, "midi": 78, "name": "F#5", "ticks": 4704, "time": 32.666683, "velocity": 0.6299212598425197 }, { "duration": 0.31250015624999605, "durationTicks": 45, "midi": 78, "name": "F#5", "ticks": 4800, "time": 33.33335, "velocity": 0.6299212598425197 }, { "duration": 0.31250015625000316, "durationTicks": 45, "midi": 82, "name": "A#5", "ticks": 4896, "time": 34.000017, "velocity": 0.6299212598425197 }, { "duration": 0.31250015624999605, "durationTicks": 45, "midi": 87, "name": "D#6", "ticks": 4992, "time": 34.666684000000004, "velocity": 0.6299212598425197 }, { "duration": 0.31250015625000316, "durationTicks": 45, "midi": 87, "name": "D#6", "ticks": 5088, "time": 35.333351, "velocity": 0.6299212598425197 }, { "duration": 0.31250015625000316, "durationTicks": 45, "midi": 87, "name": "D#6", "ticks": 5184, "time": 36.000018, "velocity": 0.6299212598425197 }, { "duration": 0.31250015625000316, "durationTicks": 45, "midi": 82, "name": "A#5", "ticks": 5232, "time": 36.3333515, "velocity": 0.6299212598425197 }, { "duration": 0.31250015624999605, "durationTicks": 45, "midi": 82, "name": "A#5", "ticks": 5280, "time": 36.666685, "velocity": 0.6299212598425197 }, { "duration": 0.31250015624999605, "durationTicks": 45, "midi": 85, "name": "C#6", "ticks": 5280, "time": 36.666685, "velocity": 0.6299212598425197 }, { "duration": 0.31250015624999605, "durationTicks": 45, "midi": 82, "name": "A#5", "ticks": 5328, "time": 37.0000185, "velocity": 0.6299212598425197 }, { "duration": 0.6319447604166655, "durationTicks": 91, "midi": 82, "name": "A#5", "ticks": 5376, "time": 37.333352, "velocity": 0.6299212598425197 }, { "duration": 0.31250015624999605, "durationTicks": 45, "midi": 82, "name": "A#5", "ticks": 5472, "time": 38.000019, "velocity": 0.6299212598425197 }, { "duration": 0.31250015625000316, "durationTicks": 45, "midi": 82, "name": "A#5", "ticks": 5568, "time": 38.666686, "velocity": 0.6299212598425197 }, { "duration": 0.31250015624999605, "durationTicks": 45, "midi": 82, "name": "A#5", "ticks": 5664, "time": 39.333353, "velocity": 0.6299212598425197 }, { "duration": 0.31250015625000316, "durationTicks": 45, "midi": 77, "name": "F5", "ticks": 5760, "time": 40.00002, "velocity": 0.6299212598425197 }, { "duration": 0.31250015624999605, "durationTicks": 45, "midi": 77, "name": "F5", "ticks": 5856, "time": 40.666687, "velocity": 0.6299212598425197 }, { "duration": 0.31250015625000316, "durationTicks": 45, "midi": 77, "name": "F5", "ticks": 5952, "time": 41.333354, "velocity": 0.6299212598425197 }, { "duration": 0.31250015624999605, "durationTicks": 45, "midi": 70, "name": "A#4", "ticks": 6000, "time": 41.6666875, "velocity": 0.6299212598425197 }, { "duration": 0.31250015624999605, "durationTicks": 45, "midi": 82, "name": "A#5", "ticks": 6000, "time": 41.6666875, "velocity": 0.6299212598425197 }, { "duration": 0.31250015624999605, "durationTicks": 45, "midi": 70, "name": "A#4", "ticks": 6048, "time": 42.000021000000004, "velocity": 0.6299212598425197 }, { "duration": 0.31250015624999605, "durationTicks": 45, "midi": 77, "name": "F5", "ticks": 6048, "time": 42.000021000000004, "velocity": 0.6299212598425197 }, { "duration": 0.31250015624999605, "durationTicks": 45, "midi": 82, "name": "A#5", "ticks": 6048, "time": 42.000021000000004, "velocity": 0.6299212598425197 }, { "duration": 0.31250015625000316, "durationTicks": 45, "midi": 70, "name": "A#4", "ticks": 6096, "time": 42.3333545, "velocity": 0.6299212598425197 }, { "duration": 0.31250015625000316, "durationTicks": 45, "midi": 82, "name": "A#5", "ticks": 6096, "time": 42.3333545, "velocity": 0.6299212598425197 }, { "duration": 1.263889520833331, "durationTicks": 182, "midi": 70, "name": "A#4", "ticks": 6144, "time": 42.666688, "velocity": 0.6299212598425197 }, { "duration": 1.263889520833331, "durationTicks": 182, "midi": 78, "name": "F#5", "ticks": 6144, "time": 42.666688, "velocity": 0.6299212598425197 }, { "duration": 1.263889520833331, "durationTicks": 182, "midi": 82, "name": "A#5", "ticks": 6144, "time": 42.666688, "velocity": 0.6299212598425197 }, { "duration": 0.1527778541666649, "durationTicks": 22, "midi": 66, "name": "F#4", "ticks": 6384, "time": 44.3333555, "velocity": 0.6299212598425197 }, { "duration": 0.152777854166672, "durationTicks": 22, "midi": 68, "name": "G#4", "ticks": 6408, "time": 44.50002225, "velocity": 0.6299212598425197 }, { "duration": 0.31250015625000316, "durationTicks": 45, "midi": 68, "name": "G#4", "ticks": 6432, "time": 44.666689, "velocity": 0.6299212598425197 }, { "duration": 0.152777854166672, "durationTicks": 22, "midi": 68, "name": "G#4", "ticks": 6480, "time": 45.0000225, "velocity": 0.6299212598425197 }, { "duration": 0.152777854166672, "durationTicks": 22, "midi": 70, "name": "A#4", "ticks": 6504, "time": 45.16668925, "velocity": 0.6299212598425197 }, { "duration": 0.31250015624999605, "durationTicks": 45, "midi": 68, "name": "G#4", "ticks": 6528, "time": 45.333356, "velocity": 0.6299212598425197 }, { "duration": 0.31250015624999605, "durationTicks": 45, "midi": 66, "name": "F#4", "ticks": 6576, "time": 45.666689500000004, "velocity": 0.6299212598425197 }, { "duration": 0.9444449166666686, "durationTicks": 136, "midi": 66, "name": "F#4", "ticks": 6624, "time": 46.000023, "velocity": 0.6299212598425197 }, { "duration": 0.31250015625000316, "durationTicks": 45, "midi": 70, "name": "A#4", "ticks": 6768, "time": 47.0000235, "velocity": 0.6299212598425197 }, { "duration": 0.31250015625000316, "durationTicks": 45, "midi": 82, "name": "A#5", "ticks": 6768, "time": 47.0000235, "velocity": 0.6299212598425197 }, { "duration": 0.31250015625000316, "durationTicks": 45, "midi": 70, "name": "A#4", "ticks": 6816, "time": 47.333357, "velocity": 0.6299212598425197 }, { "duration": 0.31250015625000316, "durationTicks": 45, "midi": 82, "name": "A#5", "ticks": 6816, "time": 47.333357, "velocity": 0.6299212598425197 }, { "duration": 0.31250015624999605, "durationTicks": 45, "midi": 70, "name": "A#4", "ticks": 6864, "time": 47.6666905, "velocity": 0.6299212598425197 }, { "duration": 0.31250015624999605, "durationTicks": 45, "midi": 82, "name": "A#5", "ticks": 6864, "time": 47.6666905, "velocity": 0.6299212598425197 }, { "duration": 1.263889520833331, "durationTicks": 182, "midi": 70, "name": "A#4", "ticks": 6912, "time": 48.000024, "velocity": 0.6299212598425197 }, { "duration": 1.263889520833331, "durationTicks": 182, "midi": 82, "name": "A#5", "ticks": 6912, "time": 48.000024, "velocity": 0.6299212598425197 }, { "duration": 0.152777854166672, "durationTicks": 22, "midi": 66, "name": "F#4", "ticks": 7152, "time": 49.6666915, "velocity": 0.6299212598425197 }, { "duration": 0.1527778541666649, "durationTicks": 22, "midi": 66, "name": "F#4", "ticks": 7176, "time": 49.83335825, "velocity": 0.6299212598425197 }, { "duration": 0.31250015625000316, "durationTicks": 45, "midi": 66, "name": "F#4", "ticks": 7200, "time": 50.000025, "velocity": 0.6299212598425197 }, { "duration": 0.1527778541666649, "durationTicks": 22, "midi": 66, "name": "F#4", "ticks": 7248, "time": 50.3333585, "velocity": 0.6299212598425197 }, { "duration": 0.152777854166672, "durationTicks": 22, "midi": 68, "name": "G#4", "ticks": 7272, "time": 50.50002525, "velocity": 0.6299212598425197 }, { "duration": 0.31250015625000316, "durationTicks": 45, "midi": 65, "name": "F4", "ticks": 7296, "time": 50.666692, "velocity": 0.6299212598425197 }, { "duration": 0.31250015625000316, "durationTicks": 45, "midi": 65, "name": "F4", "ticks": 7344, "time": 51.0000255, "velocity": 0.6299212598425197 }, { "duration": 0.31250015624999605, "durationTicks": 45, "midi": 65, "name": "F4", "ticks": 7392, "time": 51.333359, "velocity": 0.6299212598425197 }, { "duration": 1.263889520833331, "durationTicks": 182, "midi": 66, "name": "F#4", "ticks": 7440, "time": 51.6666925, "velocity": 0.6299212598425197 },{ "duration": 1.333334, "durationTicks": 192, "midi": 54, "name": "F#3", "ticks": 0, "time": 0, "velocity": 0.6299212598425197 }, { "duration": 1.333334, "durationTicks": 192, "midi": 51, "name": "D#3", "ticks": 0, "time": 0, "velocity": 0.6299212598425197 }, { "duration": 1.3333340000000002, "durationTicks": 192, "midi": 59, "name": "B3", "ticks": 384, "time": 2.666668, "velocity": 0.6299212598425197 }, { "duration": 1.3333340000000002, "durationTicks": 192, "midi": 54, "name": "F#3", "ticks": 384, "time": 2.666668, "velocity": 0.6299212598425197 }, { "duration": 1.3333339999999998, "durationTicks": 192, "midi": 61, "name": "C#4", "ticks": 768, "time": 5.333336, "velocity": 0.6299212598425197 }, { "duration": 1.3333339999999998, "durationTicks": 192, "midi": 58, "name": "A#3", "ticks": 768, "time": 5.333336, "velocity": 0.6299212598425197 }, { "duration": 1.333333999999999, "durationTicks": 192, "midi": 53, "name": "F3", "ticks": 1152, "time": 8.000004, "velocity": 0.6299212598425197 }, { "duration": 1.333333999999999, "durationTicks": 192, "midi": 49, "name": "C#3", "ticks": 1152, "time": 8.000004, "velocity": 0.6299212598425197 }, { "duration": 1.3333340000000007, "durationTicks": 192, "midi": 54, "name": "F#3", "ticks": 1536, "time": 10.666672, "velocity": 0.7874015748031497 }, { "duration": 1.3333340000000007, "durationTicks": 192, "midi": 51, "name": "D#3", "ticks": 1536, "time": 10.666672, "velocity": 0.7874015748031497 }, { "duration": 1.3333340000000007, "durationTicks": 192, "midi": 59, "name": "B3", "ticks": 1920, "time": 13.33334, "velocity": 0.7874015748031497 }, { "duration": 1.3333340000000007, "durationTicks": 192, "midi": 54, "name": "F#3", "ticks": 1920, "time": 13.33334, "velocity": 0.7874015748031497 }, { "duration": 1.3333340000000007, "durationTicks": 192, "midi": 58, "name": "A#3", "ticks": 2304, "time": 16.000008, "velocity": 0.7874015748031497 }, { "duration": 1.3333340000000007, "durationTicks": 192, "midi": 54, "name": "F#3", "ticks": 2304, "time": 16.000008, "velocity": 0.7874015748031497 }, { "duration": 1.3333340000000007, "durationTicks": 192, "midi": 53, "name": "F3", "ticks": 2688, "time": 18.666676, "velocity": 0.7874015748031497 }, { "duration": 1.3333340000000007, "durationTicks": 192, "midi": 49, "name": "C#3", "ticks": 2688, "time": 18.666676, "velocity": 0.7874015748031497 }, { "duration": 1.3333340000000007, "durationTicks": 192, "midi": 54, "name": "F#3", "ticks": 3072, "time": 21.333344, "velocity": 0.7874015748031497 }, { "duration": 1.3333340000000007, "durationTicks": 192, "midi": 51, "name": "D#3", "ticks": 3072, "time": 21.333344, "velocity": 0.7874015748031497 }, { "duration": 1.3333339999999971, "durationTicks": 192, "midi": 59, "name": "B3", "ticks": 3456, "time": 24.000012, "velocity": 0.7874015748031497 }, { "duration": 1.3333339999999971, "durationTicks": 192, "midi": 54, "name": "F#3", "ticks": 3456, "time": 24.000012, "velocity": 0.7874015748031497 }, { "duration": 1.3333340000000007, "durationTicks": 192, "midi": 58, "name": "A#3", "ticks": 3840, "time": 26.66668, "velocity": 0.7874015748031497 }, { "duration": 1.3333340000000007, "durationTicks": 192, "midi": 54, "name": "F#3", "ticks": 3840, "time": 26.66668, "velocity": 0.7874015748031497 }, { "duration": 1.3333340000000007, "durationTicks": 192, "midi": 53, "name": "F3", "ticks": 4224, "time": 29.333348, "velocity": 0.7874015748031497 }, { "duration": 1.3333340000000007, "durationTicks": 192, "midi": 49, "name": "C#3", "ticks": 4224, "time": 29.333348, "velocity": 0.7874015748031497 }, { "duration": 1.3333340000000007, "durationTicks": 192, "midi": 54, "name": "F#3", "ticks": 4608, "time": 32.000016, "velocity": 0.7874015748031497 }, { "duration": 1.3333340000000007, "durationTicks": 192, "midi": 51, "name": "D#3", "ticks": 4608, "time": 32.000016, "velocity": 0.7874015748031497 }, { "duration": 1.3333339999999936, "durationTicks": 192, "midi": 59, "name": "B3", "ticks": 4992, "time": 34.666684000000004, "velocity": 0.7874015748031497 }, { "duration": 1.3333339999999936, "durationTicks": 192, "midi": 54, "name": "F#3", "ticks": 4992, "time": 34.666684000000004, "velocity": 0.7874015748031497 }, { "duration": 1.3333340000000007, "durationTicks": 192, "midi": 58, "name": "A#3", "ticks": 5376, "time": 37.333352, "velocity": 0.7874015748031497 }, { "duration": 1.3333340000000007, "durationTicks": 192, "midi": 54, "name": "F#3", "ticks": 5376, "time": 37.333352, "velocity": 0.7874015748031497 }, { "duration": 1.3333340000000007, "durationTicks": 192, "midi": 53, "name": "F3", "ticks": 5760, "time": 40.00002, "velocity": 0.7874015748031497 }, { "duration": 1.3333340000000007, "durationTicks": 192, "midi": 49, "name": "C#3", "ticks": 5760, "time": 40.00002, "velocity": 0.7874015748031497 }, { "duration": 1.3333340000000007, "durationTicks": 192, "midi": 54, "name": "F#3", "ticks": 6144, "time": 42.666688, "velocity": 0.7874015748031497 }, { "duration": 1.3333340000000007, "durationTicks": 192, "midi": 51, "name": "D#3", "ticks": 6144, "time": 42.666688, "velocity": 0.7874015748031497 }, { "duration": 1.3333340000000007, "durationTicks": 192, "midi": 59, "name": "B3", "ticks": 6528, "time": 45.333356, "velocity": 0.7874015748031497 }, { "duration": 1.3333340000000007, "durationTicks": 192, "midi": 54, "name": "F#3", "ticks": 6528, "time": 45.333356, "velocity": 0.7874015748031497 }, { "duration": 1.3333340000000007, "durationTicks": 192, "midi": 58, "name": "A#3", "ticks": 6912, "time": 48.000024, "velocity": 0.7874015748031497 }, { "duration": 1.3333340000000007, "durationTicks": 192, "midi": 54, "name": "F#3", "ticks": 6912, "time": 48.000024, "velocity": 0.7874015748031497 }, { "duration": 1.3333340000000007, "durationTicks": 192, "midi": 53, "name": "F3", "ticks": 7296, "time": 50.666692, "velocity": 0.7874015748031497 }, { "duration": 1.3333340000000007, "durationTicks": 192, "midi": 49, "name": "C#3", "ticks": 7296, "time": 50.666692, "velocity": 0.7874015748031497 }]';